<?xml version="1.0" encoding="UTF-8"?>
<svg width="200px" height="200px" viewBox="0 0 200 200" version="1.1" xmlns="http://www.w3.org/2000/svg" xmlns:xlink="http://www.w3.org/1999/xlink">
    <title>Artboard</title>
    <defs>
        <linearGradient x1="50%" y1="0%" x2="50%" y2="100%" id="linearGradient-1">
            <stop stop-color="#FFFFFF" offset="0%"></stop>
            <stop stop-color="#8683E3" offset="100%"></stop>
        </linearGradient>
        <radialGradient cx="50%" cy="-29.0834737%" fx="50%" fy="-29.0834737%" r="112.742149%" gradientTransform="translate(0.500000,-0.290835),scale(1.000000,0.881079),rotate(90.000000),scale(1.000000,0.877284),translate(-0.500000,0.290835)" id="radialGradient-2">
            <stop stop-color="#FF00BC" stop-opacity="0.685330904" offset="0%"></stop>
            <stop stop-color="#5C00FF" stop-opacity="0.532623504" offset="100%"></stop>
        </radialGradient>
        <path d="M100.659138,172.077149 C98.3428352,171.959757 96.4931658,170.104773 96.3824195,167.788144 L95.4883377,149.085414 L94.0940391,119.918971 C94.0190739,118.35082 93.1518269,117.00811 91.8978465,116.259381 C90.6438662,115.510653 92.513966,116.590356 91.238558,115.878741 C89.9631501,115.167126 88.3667049,115.087424 86.9711644,115.806577 L61.0151343,129.182301 L44.3710542,137.759368 C42.3094209,138.821774 39.7781232,138.147405 38.5183076,136.200124 C37.2584919,134.252843 39.4136691,137.98572 38.3571823,135.921047 C37.3006955,133.856374 37.9823238,131.327022 39.9332108,130.072798 L55.683209,119.947135 L80.2449406,104.156416 C81.5655159,103.307419 82.294714,101.885005 82.3161416,100.424662 C82.3375692,98.9643194 82.3375692,101.123725 82.3161416,99.6633816 C82.294714,98.2030386 81.5655159,96.7806253 80.2449406,95.9316284 L55.683209,80.1409087 L39.9332108,70.0152462 C37.9823238,68.7610223 37.3006955,66.2316697 38.3571823,64.166997 C39.4136691,62.1023243 37.2584919,65.8352006 38.5183076,63.8879198 C39.7781232,61.9406391 42.3094209,61.2662702 44.3710542,62.328676 L61.0151343,70.9057433 L86.9711644,84.281467 C88.3667049,85.0006203 89.9631501,84.9209177 91.238558,84.2093031 C92.513966,83.4976884 90.6438662,84.577391 91.8978465,83.8286627 C93.1518269,83.0799343 94.0190739,81.7372236 94.0940391,80.1690734 L95.4883377,51.00263 L96.3824195,32.2999002 C96.4931658,29.9832705 98.3428352,28.1282869 100.659138,28.0108949 C102.97544,27.8935029 99.758935,27.8935029 102.075237,28.0108949 C104.39154,28.1282869 106.241209,29.9832705 106.351955,32.2999002 L107.246037,51.00263 L108.640336,80.1690734 C108.715301,81.7372236 109.582548,83.0799343 110.836528,83.8286627 C112.090509,84.577391 110.220409,83.4976884 111.495817,84.2093031 C112.771225,84.9209177 114.36767,85.0006203 115.763211,84.281467 L141.719241,70.9057433 L158.363321,62.328676 C160.424954,61.2662702 162.956252,61.9406391 164.216067,63.8879198 C165.475883,65.8352006 163.320706,62.1023243 164.377193,64.166997 C165.433679,66.2316697 164.752051,68.7610223 162.801164,70.0152462 L147.051166,80.1409087 L122.489434,95.9316284 C121.168859,96.7806253 120.439661,98.2030386 120.418233,99.6633816 C120.396806,101.123725 120.396806,98.9643194 120.418233,100.424662 C120.439661,101.885005 121.168859,103.307419 122.489434,104.156416 L147.051166,119.947135 L162.801164,130.072798 C164.752051,131.327022 165.433679,133.856374 164.377193,135.921047 C163.320706,137.98572 165.475883,134.252843 164.216067,136.200124 C162.956252,138.147405 160.424954,138.821774 158.363321,137.759368 L141.719241,129.182301 L115.763211,115.806577 C114.36767,115.087424 112.771225,115.167126 111.495817,115.878741 C110.220409,116.590356 112.090509,115.510653 110.836528,116.259381 C109.582548,117.00811 108.715301,118.35082 108.640336,119.918971 L107.246037,149.085414 L106.351955,167.788144 C106.241209,170.104773 104.39154,171.959757 102.075237,172.077149" id="path-3"></path>
    </defs>
    <g id="Artboard" stroke="none" stroke-width="1" fill="none" fill-rule="evenodd">
        <g id="Group">
            <path d="M47.7899344,0 L152.210066,0 C178.603718,0 200,21.3962824 200,47.7899344 L200,152.210066 C200,178.603718 178.603718,200 152.210066,200 L47.7899344,200 C21.3962824,200 0,178.603718 0,152.210066 L0,47.7899344 C0,21.3962824 21.3962824,0 47.7899344,0 Z" id="Rectangle-Copy-24" fill="#1F1F1F"></path>
            <g id="Path-Copy-11" transform="translate(101.367187, 100.000000) rotate(-180.000000) translate(-101.367187, -100.000000) ">
                <use fill="url(#linearGradient-1)" xlink:href="#path-3"></use>
                <use fill="url(#radialGradient-2)" xlink:href="#path-3"></use>
            </g>
        </g>
    </g>
</svg>