<?xml version="1.0" encoding="UTF-8"?>
<svg width="200px" height="200px" viewBox="0 0 200 200" version="1.1" xmlns="http://www.w3.org/2000/svg" xmlns:xlink="http://www.w3.org/1999/xlink">
    <title>Artboard Copy 2</title>
    <defs>
        <linearGradient x1="50%" y1="0%" x2="50%" y2="100%" id="linearGradient-1">
            <stop stop-color="#FFFFFF" offset="0%"></stop>
            <stop stop-color="#8683E3" offset="100%"></stop>
        </linearGradient>
        <radialGradient cx="50%" cy="-29.0834737%" fx="50%" fy="-29.0834737%" r="112.742149%" gradientTransform="translate(0.500000,-0.290835),scale(1.000000,0.881079),rotate(90.000000),scale(1.000000,0.877284),translate(-0.500000,0.290835)" id="radialGradient-2">
            <stop stop-color="#FF00BC" stop-opacity="0.685330904" offset="0%"></stop>
            <stop stop-color="#5C00FF" stop-opacity="0.532623504" offset="100%"></stop>
        </radialGradient>
        <path d="M100.659138,173.613036 C98.3428352,173.495644 96.4931658,171.640661 96.3824195,169.324031 L95.4883377,150.621301 L94.0940391,121.454858 C94.0190739,119.886708 93.1518269,118.543997 91.8978465,117.795269 C90.6438662,117.04654 92.513966,118.126243 91.238558,117.414628 C89.9631501,116.703014 88.3667049,116.623311 86.9711644,117.342464 L61.0151343,130.718188 L44.3710542,139.295255 C42.3094209,140.357661 39.7781232,139.683292 38.5183076,137.736011 C37.2584919,135.788731 39.4136691,139.521607 38.3571823,137.456934 C37.3006955,135.392262 37.9823238,132.862909 39.9332108,131.608685 L55.683209,121.483023 L80.2449406,105.692303 C81.5655159,104.843306 82.294714,103.420893 82.3161416,101.96055 C82.3375692,100.500207 82.3375692,102.659612 82.3161416,101.199269 C82.294714,99.7389259 81.5655159,98.3165126 80.2449406,97.4675157 L55.683209,81.6767961 L39.9332108,71.5511335 C37.9823238,70.2969097 37.3006955,67.7675571 38.3571823,65.7028844 C39.4136691,63.6382116 37.2584919,67.3710879 38.5183076,65.4238072 C39.7781232,63.4765264 42.3094209,62.8021575 44.3710542,63.8645633 L61.0151343,72.4416306 L86.9711644,85.8173543 C88.3667049,86.5365076 89.9631501,86.4568051 91.238558,85.7451904 C92.513966,85.0335757 90.6438662,86.1132784 91.8978465,85.36455 C93.1518269,84.6158217 94.0190739,83.2731109 94.0940391,81.7049607 L95.4883377,52.5385173 L96.3824195,33.8357875 C96.4931658,31.5191579 98.3428352,29.6641742 100.659138,29.5467822 C102.97544,29.4293902 99.758935,29.4293902 102.075237,29.5467822 C104.39154,29.6641742 106.241209,31.5191579 106.351955,33.8357875 L107.246037,52.5385173 L108.640336,81.7049607 C108.715301,83.2731109 109.582548,84.6158217 110.836528,85.36455 C112.090509,86.1132784 110.220409,85.0335757 111.495817,85.7451904 C112.771225,86.4568051 114.36767,86.5365076 115.763211,85.8173543 L141.719241,72.4416306 L158.363321,63.8645633 C160.424954,62.8021575 162.956252,63.4765264 164.216067,65.4238072 C165.475883,67.3710879 163.320706,63.6382116 164.377193,65.7028844 C165.433679,67.7675571 164.752051,70.2969097 162.801164,71.5511335 L147.051166,81.6767961 L122.489434,97.4675157 C121.168859,98.3165126 120.439661,99.7389259 120.418233,101.199269 C120.396806,102.659612 120.396806,100.500207 120.418233,101.96055 C120.439661,103.420893 121.168859,104.843306 122.489434,105.692303 L147.051166,121.483023 L162.801164,131.608685 C164.752051,132.862909 165.433679,135.392262 164.377193,137.456934 C163.320706,139.521607 165.475883,135.788731 164.216067,137.736011 C162.956252,139.683292 160.424954,140.357661 158.363321,139.295255 L141.719241,130.718188 L115.763211,117.342464 C114.36767,116.623311 112.771225,116.703014 111.495817,117.414628 C110.220409,118.126243 112.090509,117.04654 110.836528,117.795269 C109.582548,118.543997 108.715301,119.886708 108.640336,121.454858 L107.246037,150.621301 L106.351955,169.324031 C106.241209,171.640661 104.39154,173.495644 102.075237,173.613036" id="path-3"></path>
    </defs>
    <g id="Artboard-Copy-2" stroke="none" stroke-width="1" fill="none" fill-rule="evenodd">
        <rect fill="#000000" x="0" y="0" width="200" height="200"></rect>
        <g id="Group" transform="translate(-0.000000, 0.000000)">
            <path d="M47.7899344,0 L152.210066,0 C178.603718,0 200,21.3962824 200,47.7899344 L200,152.210066 C200,178.603718 178.603718,200 152.210066,200 L47.7899344,200 C21.3962824,200 0,178.603718 0,152.210066 L0,47.7899344 C0,21.3962824 21.3962824,0 47.7899344,0 Z" id="Rectangle-Copy-25" fill="#FFFFFF"></path>
            <g id="Path-Copy-15" transform="translate(101.367188, 101.535887) rotate(-180.000000) translate(-101.367188, -101.535887) ">
                <use fill="url(#linearGradient-1)" xlink:href="#path-3"></use>
                <use fill="url(#radialGradient-2)" xlink:href="#path-3"></use>
            </g>
        </g>
    </g>
</svg>