<?xml version="1.0" encoding="UTF-8"?>
<svg width="120px" height="120px" viewBox="0 0 120 120" version="1.1" xmlns="http://www.w3.org/2000/svg" xmlns:xlink="http://www.w3.org/1999/xlink">
    <title>Shape</title>
    <g id="Page-1" stroke="none" stroke-width="1" fill="none" fill-rule="evenodd">
        <path d="M60,0 C93.137085,0 120,26.862915 120,60 C120,93.137085 93.137085,120 60,120 C26.862915,120 0,93.137085 0,60 C0,26.862915 26.862915,0 60,0 Z M49.3929114,60.9144304 L49.3896858,61.123503 C49.376829,61.9997089 48.9393102,62.8531568 48.1469652,63.362555 L23.9599272,78.9123843 C22.789395,79.6649186 22.3804182,81.1825301 23.0143098,82.4213338 L23.0582278,82.5083544 L23.1109854,82.5887801 C23.8224103,83.688421 25.2096131,84.1115247 26.4016298,83.6260558 L26.622633,83.5243264 L52.182699,70.3526518 C52.9439032,69.9603864 53.8047292,69.9642478 54.5298918,70.2889797 L54.9288072,70.4980013 C54.886219,70.4719615 54.8680377,70.4602768 54.8653463,70.4577993 L55.0058997,70.5405314 L54.9508861,70.5113924 L55.1387088,70.6243344 C55.8910968,71.0735714 56.411445,71.8791979 56.456424,72.820088 L57.8294526,101.541592 C57.8959002,102.93157 59.0057016,104.04456 60.3954834,104.114995 L60.8202532,104.141772 L61.043112,104.126082 L61.2451428,104.114995 C62.6349245,104.04456 63.7447261,102.93157 63.8111739,101.541592 L65.1842021,72.820088 C65.2291813,71.8791979 65.7495295,71.0735714 66.5019177,70.6243344 L66.6881013,70.5113924 L66.6447422,70.531162 L66.7466019,70.4765559 L66.6956962,70.5068354 L66.8974908,70.3959502 C67.6627355,69.9689813 68.6206027,69.9211598 69.457927,70.3526518 L95.0179931,83.5243264 C96.2549731,84.1617699 97.7737517,83.7571486 98.529641,82.5887801 L98.5807595,82.5083544 L98.6263162,82.4213338 C99.2229205,81.2554009 98.8957377,79.8424964 97.8793009,79.052914 L97.6806991,78.9123843 L73.4936612,63.362555 C72.7013161,62.8531568 72.2637972,61.9997089 72.2509406,61.123503 L72.2460759,60.9144304 L72.2416839,60.9536906 C72.2409125,60.9038061 72.2412982,60.8148283 72.242841,60.8040371 L72.2460759,60.8734177 L72.2509406,60.6667344 C72.2637972,59.7905286 72.7013161,58.9370808 73.4936612,58.4276826 L97.6806991,42.8778534 C98.8512313,42.125319 99.2602083,40.6077072 98.6263162,39.368904 L98.5792405,39.2764557 L98.529641,39.2014578 C97.8182158,38.1018168 96.4310131,37.678713 95.2389963,38.164182 L95.0179931,38.2659114 L69.457927,51.437586 C68.6206027,51.8690778 67.6627355,51.821256 66.8974908,51.3942876 L66.6285173,51.2417665 L66.5019177,51.165903 C65.7495295,50.7166662 65.2291813,49.9110396 65.1842021,48.9701496 L63.8111739,20.2486458 C63.7447261,18.8586678 62.6349245,17.745678 61.2451428,17.6752428 L60.3954834,17.6752428 C59.0057016,17.745678 57.8959002,18.8586678 57.8294526,20.2486458 L56.456424,48.9701496 C56.411445,49.9110396 55.8910968,50.7166662 55.1387088,51.165903 L54.8721349,51.3225808 L54.7431354,51.3942876 C53.9778906,51.821256 53.0200236,51.8690778 52.182699,51.437586 L26.622633,38.2659114 C25.3856532,37.6284678 23.8668744,38.0330892 23.1109854,39.2014578 L23.0597468,39.2764557 L23.0143098,39.368904 C22.4177059,40.5348364 22.7448886,41.9477412 23.7613254,42.7373237 L23.9599272,42.8778534 L48.1469652,58.4276826 C48.9393102,58.9370808 49.376829,59.7905286 49.3896858,60.6667344 L49.3929114,60.8734177 L49.3989423,60.8365468 C49.3997136,60.8864313 49.399328,60.9754091 49.3977852,60.9862003 L49.3929114,60.9144304 Z" id="Shape" fill="#FFFFFF"></path>
    </g>
</svg>