<?xml version="1.0" encoding="UTF-8"?>
<svg width="200px" height="200px" viewBox="0 0 200 200" version="1.1" xmlns="http://www.w3.org/2000/svg" xmlns:xlink="http://www.w3.org/1999/xlink">
    <title>Artboard</title>
    <g id="Artboard" stroke="none" stroke-width="1" fill="none" fill-rule="evenodd">
        <path d="M63.9071368,94.0425227 L15.2450107,58.7217173 C12.1481896,56.4739278 11.4599135,52.1412649 13.7077029,49.0444438 C15.6307876,46.3949746 19.1458834,45.4531075 22.1360582,46.7860728 L77.0558361,71.2683076 C80.5508894,72.8263386 84.6472236,71.2560717 86.2052546,67.7610184 C86.5021581,67.0949897 86.6920599,66.3862664 86.7679483,65.661017 L93.0256,5.85797675 C93.4238323,2.05215629 96.8318904,-0.710239769 100.637711,-0.312007524 C103.893761,0.0286980083 106.46699,2.60192679 106.807695,5.85797675 L113.065347,65.661017 C113.463579,69.4668374 116.871637,72.2292335 120.677458,71.8310012 C121.402707,71.7551128 122.11143,71.565211 122.777459,71.2683076 L177.697237,46.7860728 C181.19229,45.2280418 185.288624,46.7983087 186.846655,50.293362 C188.179621,53.2835368 187.237754,56.7986326 184.588284,58.7217173 L135.926158,94.0425227 C132.829337,96.2903122 132.141061,100.622975 134.388851,103.719796 C134.817197,104.309936 135.336018,104.828758 135.926158,105.257104 L184.588284,140.577909 C187.685106,142.825699 188.373382,147.158362 186.125592,150.255183 C184.202508,152.904652 180.687412,153.846519 177.697237,152.513554 L122.777459,128.031319 C119.282406,126.473288 115.186071,128.043555 113.62804,131.538608 C113.331137,132.204637 113.141235,132.91336 113.065347,133.63861 L106.807695,193.44165 C106.409463,197.24747 103.001405,200.009866 99.1955843,199.611634 C95.9395343,199.270929 93.3663055,196.6977 93.0256,193.44165 L86.7679483,133.63861 C86.3697161,129.832789 82.961658,127.070393 79.1558375,127.468625 C78.430588,127.544514 77.7218648,127.734416 77.0558361,128.031319 L22.1360582,152.513554 C18.6410049,154.071585 14.5446707,152.501318 12.9866397,149.006265 C11.6536743,146.01609 12.5955414,142.500994 15.2450107,140.577909 L63.9071368,105.257104 C67.0039579,103.009314 67.692234,98.6766515 65.4444446,95.5798304 C65.0160985,94.9896902 64.4972771,94.4708688 63.9071368,94.0425227 Z" id="Star-Copy-7" fill="#FFFFFF"></path>
    </g>
</svg>