<?xml version="1.0" encoding="UTF-8"?>
<svg width="200px" height="200px" viewBox="0 0 200 200" version="1.1" xmlns="http://www.w3.org/2000/svg" xmlns:xlink="http://www.w3.org/1999/xlink">
    <title>Artboard</title>
    <g id="Artboard" stroke="none" stroke-width="1" fill="none" fill-rule="evenodd">
        <path d="M73.7024977,100.0137 L73.6950368,100.497292 C73.6652986,102.523986 72.6533029,104.49804 70.8205821,105.676295 L14.875147,141.643575 C12.1676665,143.384212 11.2216894,146.894499 12.6879021,149.759893 L12.7894859,149.961175 L12.911516,150.147202 C14.5570658,152.690709 17.7657127,153.669362 20.5228875,152.546456 L21.0340754,152.311153 L80.1553706,121.844625 C81.9160616,120.937302 83.9071812,120.946233 85.5845068,121.697349 L86.5072115,122.180823 C86.4087036,122.120592 86.3666496,122.093565 86.3604243,122.087834 L86.6855291,122.279197 L86.5582808,122.211797 L86.992721,122.473036 C88.7330199,123.512136 89.9366028,125.375577 90.0406408,127.551888 L93.2165022,193.985696 C93.3701978,197.200762 95.9372059,199.775145 99.1518181,199.938064 L100.134325,200 L100.649805,199.963709 L101.117109,199.938064 C104.331721,199.775145 106.898729,197.200762 107.052425,193.985696 L110.228286,127.551888 C110.332324,125.375577 111.535907,123.512136 113.276207,122.473036 L113.706856,122.211797 L113.606565,122.257525 L113.842169,122.131219 L113.724423,122.201257 L114.191181,121.944775 C115.961217,120.957182 118.176797,120.846569 120.113556,121.844625 L179.234851,152.311153 C182.096028,153.785581 185.609014,152.849678 187.357412,150.147202 L187.47565,149.961175 L187.581025,149.759893 C188.96099,147.063051 188.204206,143.794956 185.853153,141.968625 L185.39378,141.643575 L129.448345,105.676295 C127.615624,104.49804 126.603628,102.523986 126.573891,100.497292 L126.562638,100.0137 L126.55248,100.10451 C126.550695,99.9891257 126.551587,99.7833171 126.555156,99.7583567 L126.562638,99.9188363 L126.573891,99.4407709 C126.603628,97.4140773 127.615624,95.4400237 129.448345,94.2617685 L185.39378,58.2944888 C188.101261,56.5538514 189.047238,53.0435641 187.581025,50.1781704 L187.472137,49.9643344 L187.357412,49.7908617 C185.711861,47.247355 182.503214,46.2687016 179.746039,47.3916078 L179.234851,47.6269113 L120.113556,78.0934392 C118.176797,79.0914943 115.961217,78.9808808 114.191181,77.9932885 L113.569036,77.6405021 L113.276207,77.4650272 C111.535907,76.4259274 110.332324,74.5624859 110.228286,72.3861755 L107.052425,5.95236798 C106.898729,2.73730196 104.331721,0.162918995 101.117109,0 L99.1518181,0 C95.9372059,0.162918995 93.3701978,2.73730196 93.2165022,5.95236798 L90.0406408,72.3861755 C89.9366028,74.5624859 88.7330199,76.4259274 86.992721,77.4650272 L86.3761266,77.8274283 L86.0777464,77.9932885 C84.3077094,78.9808808 82.0921307,79.0914943 80.1553706,78.0934392 L21.0340754,47.6269113 C18.1728994,46.1524828 14.6599127,47.0883857 12.911516,49.7908617 L12.7929994,49.9643344 L12.6879021,50.1781704 C11.3079371,52.8750114 12.0647217,56.1431079 14.4157743,57.9694389 L14.875147,58.2944888 L70.8205821,94.2617685 C72.6533029,95.4400237 73.6652986,97.4140773 73.6950368,99.4407709 L73.7024977,99.9188363 L73.7164474,99.8335527 C73.7182315,99.9489372 73.7173396,100.154746 73.713771,100.179706 L73.7024977,100.0137 Z" id="Shape-path" fill="#FFFFFF"></path>
    </g>
</svg>