<?xml version="1.0" encoding="UTF-8"?>
<svg width="124px" height="124px" viewBox="0 0 124 124" version="1.1" xmlns="http://www.w3.org/2000/svg" xmlns:xlink="http://www.w3.org/1999/xlink">
    <title>logo</title>
    <defs>
        <radialGradient cx="50%" cy="88.798723%" fx="50%" fy="88.798723%" r="85.6732373%" gradientTransform="translate(0.500000,0.887987),rotate(-90.000000),scale(1.000000,1.129418),translate(-0.500000,-0.887987)" id="radialGradient-1">
            <stop stop-color="#020D15" stop-opacity="0" offset="0%"></stop>
            <stop stop-color="#6236FF" stop-opacity="0.410169908" offset="100%"></stop>
        </radialGradient>
        <path d="M32.5559846,5.74517375 L91.4440154,5.74517375 C106.251217,5.74517375 118.254826,17.7487826 118.254826,32.5559846 L118.254826,91.4440154 C118.254826,106.251217 106.251217,118.254826 91.4440154,118.254826 L32.5559846,118.254826 C17.7487826,118.254826 5.74517375,106.251217 5.74517375,91.4440154 L5.74517375,32.5559846 C5.74517375,17.7487826 17.7487826,5.74517375 32.5559846,5.74517375 Z" id="path-2"></path>
        <path d="M62.2141035,102.093622 C60.9286462,102.028474 63.0713538,102.028474 61.7858965,102.093622 M61.60706,102.093622 C60.3216027,102.028474 59.2951085,100.99903 59.2336487,99.7133915 L58.7374682,89.3341076 L57.963687,73.1478718 C57.9220842,72.2776097 57.440796,71.5324578 56.744886,71.1169428 C56.0489759,70.7014278 57.0868082,71.3006206 56.3790066,70.9057023 C55.6712051,70.5107839 54.7852404,70.4665521 54.01077,70.8656541 L39.606188,78.2886579 L30.3693742,83.0485949 C29.2252483,83.6381886 27.8204771,83.2639402 27.1213286,82.1832755 C26.4221802,81.1026108 27.6182192,83.1742112 27.0319104,82.0283986 C26.4456015,80.8825859 26.8238786,79.4788941 27.9065446,78.7828489 L36.6471779,73.1635021 L50.2779787,64.40027 C51.0108464,63.9291099 51.4155228,63.1397261 51.4274143,62.3292928 C51.4393058,61.5188595 51.4393058,62.717245 51.4274143,61.9068118 C51.4155228,61.0963785 51.0108464,60.3069947 50.2779787,59.8358346 L36.6471779,51.0726025 L27.9065446,45.4532557 C26.8238786,44.7572104 26.4456015,43.3535186 27.0319104,42.207706 C27.6182192,41.0618934 26.4221802,43.1334938 27.1213286,42.0528291 C27.8204771,40.9721644 29.2252483,40.597916 30.3693742,41.1875097 L39.606188,45.9474467 L54.01077,53.3704505 C54.7852404,53.7695525 55.6712051,53.7253207 56.3790066,53.3304023 C57.0868082,52.935484 56.0489759,53.5346768 56.744886,53.1191618 C57.440796,52.7036468 57.9220842,51.9584948 57.963687,51.0882328 L58.7374682,34.9019969 L59.2336487,24.5227131 C59.2951085,23.2370742 60.3216027,22.2076307 61.60706,22.1424828 C62.8925173,22.0773348 61.1074827,22.0773348 62.39294,22.1424828 C63.6783973,22.2076307 64.7048915,23.2370742 64.7663513,24.5227131 L65.2625318,34.9019969 L66.036313,51.0882328 C66.0779158,51.9584948 66.559204,52.7036468 67.255114,53.1191618 C67.9510241,53.5346768 66.9131918,52.935484 67.6209934,53.3304023 C68.3287949,53.7253207 69.2147596,53.7695525 69.98923,53.3704505 L84.393812,45.9474467 L93.6306258,41.1875097 C94.7747517,40.597916 96.1795229,40.9721644 96.8786714,42.0528291 C97.5778198,43.1334938 96.3817808,41.0618934 96.9680896,42.207706 C97.5543985,43.3535186 97.1761214,44.7572104 96.0934554,45.4532557 L87.3528221,51.0726025 L73.7220213,59.8358346 C72.9891536,60.3069947 72.5844772,61.0963785 72.5725857,61.9068118 C72.5606942,62.717245 72.5606942,61.5188595 72.5725857,62.3292928 C72.5844772,63.1397261 72.9891536,63.9291099 73.7220213,64.40027 L87.3528221,73.1635021 L96.0934554,78.7828489 C97.1761214,79.4788941 97.5543985,80.8825859 96.9680896,82.0283986 C96.3817808,83.1742112 97.5778198,81.1026108 96.8786714,82.1832755 C96.1795229,83.2639402 94.7747517,83.6381886 93.6306258,83.0485949 L84.393812,78.2886579 L69.98923,70.8656541 C69.2147596,70.4665521 68.3287949,70.5107839 67.6209934,70.9057023 C66.9131918,71.3006206 67.9510241,70.7014278 67.255114,71.1169428 C66.559204,71.5324578 66.0779158,72.2776097 66.036313,73.1478718 L65.2625318,89.3341076 L64.7663513,99.7133915 C64.7048915,100.99903 63.6783973,102.028474 62.39294,102.093622" id="path-3"></path>
        <filter x="-215.3%" y="-11.8%" width="335.9%" height="136.2%" filterUnits="objectBoundingBox" id="filter-4">
            <feMorphology radius="1.5" operator="dilate" in="SourceAlpha" result="shadowSpreadOuter1"></feMorphology>
            <feOffset dx="0" dy="5" in="shadowSpreadOuter1" result="shadowOffsetOuter1"></feOffset>
            <feGaussianBlur stdDeviation="2.5" in="shadowOffsetOuter1" result="shadowBlurOuter1"></feGaussianBlur>
            <feColorMatrix values="0 0 0 0 0   0 0 0 0 0   0 0 0 0 0  0 0 0 0.0192043064 0" type="matrix" in="shadowBlurOuter1"></feColorMatrix>
        </filter>
    </defs>
    <g id="logo" stroke="none" stroke-width="1" fill="none" fill-rule="evenodd">
        <g id="Rectangle">
            <use fill="#0F0F0F" xlink:href="#path-2"></use>
            <use stroke="#6236FF" stroke-width="2" fill-opacity="0.6" fill="url(#radialGradient-1)" xlink:href="#path-2"></use>
        </g>
        <g id="Shape-Copy-3">
            <use fill="black" fill-opacity="1" filter="url(#filter-4)" xlink:href="#path-3"></use>
            <use fill="#6236FF" fill-rule="evenodd" xlink:href="#path-3"></use>
        </g>
    </g>
</svg>