<?xml version="1.0" encoding="UTF-8"?>
<svg width="36px" height="36px" viewBox="0 0 36 36" version="1.1" xmlns="http://www.w3.org/2000/svg" xmlns:xlink="http://www.w3.org/1999/xlink">
    <!-- Generator: Sketch 53.2 (72643) - https://sketchapp.com -->
    <title>alert</title>
    <desc>Created with Sketch.</desc>
    <g id="alert" stroke="none" stroke-width="1" fill="none" fill-rule="evenodd">
        <g id="Group" transform="translate(-0.000000, -0.000000)" fill="#FB8003" fill-rule="nonzero">
            <path d="M17.5555846,35.1111693 C7.85990297,35.1111693 5.68434189e-14,27.2512663 5.68434189e-14,17.5555846 C5.68434189e-14,7.85990297 7.85990297,-1.70530257e-13 17.5555846,-1.70530257e-13 C27.2512663,-1.70530257e-13 35.1111693,7.85990297 35.1111693,17.5555846 C35.1111693,27.2512663 27.2512663,35.1111693 17.5555846,35.1111693 Z M17.5555846,34.2506014 C26.7759878,34.2506014 34.2506014,26.7759878 34.2506014,17.5555846 C34.2506014,8.33518148 26.7759878,0.860567875 17.5555846,0.860567875 C8.33518148,0.860567875 0.860567875,8.33518148 0.860567875,17.5555846 C0.860567875,26.7759878 8.33518148,34.2506014 17.5555846,34.2506014 Z" id="Oval"></path>
            <path d="M22.3963771,27.5169093 L22.7731042,28.2906365 C21.1613783,29.0753846 19.3874814,29.4887925 17.5555846,29.4887925 C10.9650559,29.4887925 5.62237678,24.1461134 5.62237678,17.5555846 C5.62237678,10.9650559 10.9650559,5.62237678 17.5555846,5.62237678 C24.1461134,5.62237678 29.4887925,10.9650559 29.4887925,17.5555846 C29.4887925,20.3612289 28.5169079,23.018732 26.7693472,25.1395012 L26.1052095,24.592237 C27.726923,22.6241908 28.6282246,20.1596885 28.6282246,17.5555846 C28.6282246,11.4403344 23.6708348,6.48294466 17.5555846,6.48294466 C11.4403344,6.48294466 6.48294466,11.4403344 6.48294466,17.5555846 C6.48294466,23.6708348 11.4403344,28.6282246 17.5555846,28.6282246 C19.2562287,28.6282246 20.9013849,28.2448198 22.3963771,27.5169093 Z" id="Path"></path>
            <path d="M23.2041379,17.5555846 C23.2041379,17.3179454 23.3967826,17.1253007 23.6344219,17.1253007 C23.8720611,17.1253007 24.0647058,17.3179454 24.0647058,17.5555846 C24.0647058,21.150473 21.150473,24.0647058 17.5555846,24.0647058 C13.9606963,24.0647058 11.0464635,21.150473 11.0464635,17.5555846 C11.0464635,15.8061337 11.7404012,14.1654807 12.9529409,12.9529409 C13.1209772,12.7849046 13.393418,12.7849046 13.5614543,12.9529409 C13.7294906,13.1209772 13.7294906,13.393418 13.5614543,13.5614543 C12.5087025,14.6142061 11.9070313,16.0367164 11.9070313,17.5555846 C11.9070313,20.6751945 14.4359748,23.2041379 17.5555846,23.2041379 C20.6751945,23.2041379 23.2041379,20.6751945 23.2041379,17.5555846 Z" id="Path"></path>
            <path d="M3.24147233,18.1292966 C2.92461999,18.1292966 2.66776041,17.872437 2.66776041,17.5555846 C2.66776041,17.2387323 2.92461999,16.9818727 3.24147233,16.9818727 C3.55832467,16.9818727 3.81518424,17.2387323 3.81518424,17.5555846 C3.81518424,17.872437 3.55832467,18.1292966 3.24147233,18.1292966 Z" id="Path"></path>
            <path d="M3.24147233,17.8424406 C3.3998985,17.8424406 3.52832829,17.7140108 3.52832829,17.5555846 C3.52832829,17.3971585 3.3998985,17.2687287 3.24147233,17.2687287 C3.08304616,17.2687287 2.95461637,17.3971585 2.95461637,17.5555846 C2.95461637,17.7140108 3.08304616,17.8424406 3.24147233,17.8424406 Z" id="Path"></path>
            <path d="M8.76470406,18.1292966 C8.44785172,18.1292966 8.19099214,17.872437 8.19099214,17.5555846 C8.19099214,17.2387323 8.44785172,16.9818727 8.76470406,16.9818727 C9.0815564,16.9818727 9.33841597,17.2387323 9.33841597,17.5555846 C9.33841597,17.872437 9.0815564,18.1292966 8.76470406,18.1292966 Z" id="Path"></path>
            <path d="M8.76470406,17.8424406 C8.92313023,17.8424406 9.05156002,17.7140108 9.05156002,17.5555846 C9.05156002,17.3971585 8.92313023,17.2687287 8.76470406,17.2687287 C8.60627789,17.2687287 8.4778481,17.3971585 8.4778481,17.5555846 C8.4778481,17.7140108 8.60627789,17.8424406 8.76470406,17.8424406 Z" id="Path"></path>
            <path d="M14.516166,18.1292966 C14.1993137,18.1292966 13.9424541,17.872437 13.9424541,17.5555846 C13.9424541,17.2387323 14.1993137,16.9818727 14.516166,16.9818727 C14.8330184,16.9818727 15.0898779,17.2387323 15.0898779,17.5555846 C15.0898779,17.872437 14.8330184,18.1292966 14.516166,18.1292966 Z" id="Path"></path>
            <path d="M14.516166,17.8424406 C14.6745922,17.8424406 14.803022,17.7140108 14.803022,17.5555846 C14.803022,17.3971585 14.6745922,17.2687287 14.516166,17.2687287 C14.3577398,17.2687287 14.2293101,17.3971585 14.2293101,17.5555846 C14.2293101,17.7140108 14.3577398,17.8424406 14.516166,17.8424406 Z" id="Path"></path>
            <path d="M31.869697,18.1292966 C31.5528446,18.1292966 31.295985,17.872437 31.295985,17.5555846 C31.295985,17.2387323 31.5528446,16.9818727 31.869697,16.9818727 C32.1865493,16.9818727 32.4434089,17.2387323 32.4434089,17.5555846 C32.4434089,17.872437 32.1865493,18.1292966 31.869697,18.1292966 Z" id="Path" transform="translate(31.869697, 17.555585) rotate(-180.000000) translate(-31.869697, -17.555585) "></path>
            <path d="M31.869697,17.8424406 C32.0281231,17.8424406 32.1565529,17.7140108 32.1565529,17.5555846 C32.1565529,17.3971585 32.0281231,17.2687287 31.869697,17.2687287 C31.7112708,17.2687287 31.582841,17.3971585 31.582841,17.5555846 C31.582841,17.7140108 31.7112708,17.8424406 31.869697,17.8424406 Z" id="Path" transform="translate(31.869697, 17.555585) rotate(-180.000000) translate(-31.869697, -17.555585) "></path>
            <path d="M26.3464652,18.1292966 C26.0296129,18.1292966 25.7727533,17.872437 25.7727533,17.5555846 C25.7727533,17.2387323 26.0296129,16.9818727 26.3464652,16.9818727 C26.6633176,16.9818727 26.9201771,17.2387323 26.9201771,17.5555846 C26.9201771,17.872437 26.6633176,18.1292966 26.3464652,18.1292966 Z" id="Path" transform="translate(26.346465, 17.555585) rotate(-180.000000) translate(-26.346465, -17.555585) "></path>
            <path d="M26.3464652,17.8424406 C26.5048914,17.8424406 26.6333212,17.7140108 26.6333212,17.5555846 C26.6333212,17.3971585 26.5048914,17.2687287 26.3464652,17.2687287 C26.1880391,17.2687287 26.0596093,17.3971585 26.0596093,17.5555846 C26.0596093,17.7140108 26.1880391,17.8424406 26.3464652,17.8424406 Z" id="Path" transform="translate(26.346465, 17.555585) rotate(-180.000000) translate(-26.346465, -17.555585) "></path>
            <path d="M20.5950033,18.1292966 C20.2781509,18.1292966 20.0212913,17.872437 20.0212913,17.5555846 C20.0212913,17.2387323 20.2781509,16.9818727 20.5950033,16.9818727 C20.9118556,16.9818727 21.1687152,17.2387323 21.1687152,17.5555846 C21.1687152,17.872437 20.9118556,18.1292966 20.5950033,18.1292966 Z" id="Path" transform="translate(20.595003, 17.555585) rotate(-180.000000) translate(-20.595003, -17.555585) "></path>
            <path d="M20.5950033,17.8424406 C20.7534294,17.8424406 20.8818592,17.7140108 20.8818592,17.5555846 C20.8818592,17.3971585 20.7534294,17.2687287 20.5950033,17.2687287 C20.4365771,17.2687287 20.3081473,17.3971585 20.3081473,17.5555846 C20.3081473,17.7140108 20.4365771,17.8424406 20.5950033,17.8424406 Z" id="Path" transform="translate(20.595003, 17.555585) rotate(-180.000000) translate(-20.595003, -17.555585) "></path>
            <path d="M17.5842702,3.78649865 C17.2674179,3.78649865 17.0105583,3.52963907 17.0105583,3.21278673 C17.0105583,2.89593439 17.2674179,2.63907482 17.5842702,2.63907482 C17.9011226,2.63907482 18.1579822,2.89593439 18.1579822,3.21278673 C18.1579822,3.52963907 17.9011226,3.78649865 17.5842702,3.78649865 Z" id="Path" transform="translate(17.584270, 3.212787) rotate(-270.000000) translate(-17.584270, -3.212787) "></path>
            <path d="M17.5842702,3.49964269 C17.7426964,3.49964269 17.8711262,3.3712129 17.8711262,3.21278673 C17.8711262,3.05436056 17.7426964,2.92593077 17.5842702,2.92593077 C17.4258441,2.92593077 17.2974143,3.05436056 17.2974143,3.21278673 C17.2974143,3.3712129 17.4258441,3.49964269 17.5842702,3.49964269 Z" id="Path" transform="translate(17.584270, 3.212787) rotate(-270.000000) translate(-17.584270, -3.212787) "></path>
            <path d="M17.5842702,9.30973038 C17.2674179,9.30973038 17.0105583,9.0528708 17.0105583,8.73601846 C17.0105583,8.41916612 17.2674179,8.16230655 17.5842702,8.16230655 C17.9011226,8.16230655 18.1579822,8.41916612 18.1579822,8.73601846 C18.1579822,9.0528708 17.9011226,9.30973038 17.5842702,9.30973038 Z" id="Path" transform="translate(17.584270, 8.736018) rotate(-270.000000) translate(-17.584270, -8.736018) "></path>
            <path d="M17.5842702,9.02287442 C17.7426964,9.02287442 17.8711262,8.89444463 17.8711262,8.73601846 C17.8711262,8.57759229 17.7426964,8.4491625 17.5842702,8.4491625 C17.4258441,8.4491625 17.2974143,8.57759229 17.2974143,8.73601846 C17.2974143,8.89444463 17.4258441,9.02287442 17.5842702,9.02287442 Z" id="Path" transform="translate(17.584270, 8.736018) rotate(-270.000000) translate(-17.584270, -8.736018) "></path>
            <path d="M17.5842702,15.0611923 C17.2674179,15.0611923 17.0105583,14.8043328 17.0105583,14.4874804 C17.0105583,14.1706281 17.2674179,13.9137685 17.5842702,13.9137685 C17.9011226,13.9137685 18.1579822,14.1706281 18.1579822,14.4874804 C18.1579822,14.8043328 17.9011226,15.0611923 17.5842702,15.0611923 Z" id="Path" transform="translate(17.584270, 14.487480) rotate(-270.000000) translate(-17.584270, -14.487480) "></path>
            <path d="M17.5842702,14.7743364 C17.7426964,14.7743364 17.8711262,14.6459066 17.8711262,14.4874804 C17.8711262,14.3290543 17.7426964,14.2006245 17.5842702,14.2006245 C17.4258441,14.2006245 17.2974143,14.3290543 17.2974143,14.4874804 C17.2974143,14.6459066 17.4258441,14.7743364 17.5842702,14.7743364 Z" id="Path" transform="translate(17.584270, 14.487480) rotate(-270.000000) translate(-17.584270, -14.487480) "></path>
            <path d="M17.5842702,32.4147233 C17.2674179,32.4147233 17.0105583,32.1578637 17.0105583,31.8410114 C17.0105583,31.524159 17.2674179,31.2672994 17.5842702,31.2672994 C17.9011226,31.2672994 18.1579822,31.524159 18.1579822,31.8410114 C18.1579822,32.1578637 17.9011226,32.4147233 17.5842702,32.4147233 Z" id="Path" transform="translate(17.584270, 31.841011) rotate(-450.000000) translate(-17.584270, -31.841011) "></path>
            <path d="M17.5842702,32.1278673 C17.7426964,32.1278673 17.8711262,31.9994375 17.8711262,31.8410114 C17.8711262,31.6825852 17.7426964,31.5541554 17.5842702,31.5541554 C17.4258441,31.5541554 17.2974143,31.6825852 17.2974143,31.8410114 C17.2974143,31.9994375 17.4258441,32.1278673 17.5842702,32.1278673 Z" id="Path" transform="translate(17.584270, 31.841011) rotate(-450.000000) translate(-17.584270, -31.841011) "></path>
            <path d="M17.5842702,26.8914915 C17.2674179,26.8914915 17.0105583,26.634632 17.0105583,26.3177796 C17.0105583,26.0009273 17.2674179,25.7440677 17.5842702,25.7440677 C17.9011226,25.7440677 18.1579822,26.0009273 18.1579822,26.3177796 C18.1579822,26.634632 17.9011226,26.8914915 17.5842702,26.8914915 Z" id="Path" transform="translate(17.584270, 26.317780) rotate(-450.000000) translate(-17.584270, -26.317780) "></path>
            <path d="M17.5842702,26.6046356 C17.7426964,26.6046356 17.8711262,26.4762058 17.8711262,26.3177796 C17.8711262,26.1593535 17.7426964,26.0309237 17.5842702,26.0309237 C17.4258441,26.0309237 17.2974143,26.1593535 17.2974143,26.3177796 C17.2974143,26.4762058 17.4258441,26.6046356 17.5842702,26.6046356 Z" id="Path" transform="translate(17.584270, 26.317780) rotate(-450.000000) translate(-17.584270, -26.317780) "></path>
            <path d="M24.6741728,27.1651872 C24.3573205,27.1651872 24.1004609,26.9083276 24.1004609,26.5914753 C24.1004609,26.2746229 24.3573205,26.0177634 24.6741728,26.0177634 C24.9910252,26.0177634 25.2478847,26.2746229 25.2478847,26.5914753 C25.2478847,26.9083276 24.9910252,27.1651872 24.6741728,27.1651872 Z" id="Path" transform="translate(24.674173, 26.591475) rotate(-450.000000) translate(-24.674173, -26.591475) "></path>
            <path d="M24.6741728,26.8783312 C24.832599,26.8783312 24.9610288,26.7499015 24.9610288,26.5914753 C24.9610288,26.4330491 24.832599,26.3046193 24.6741728,26.3046193 C24.5157467,26.3046193 24.3873169,26.4330491 24.3873169,26.5914753 C24.3873169,26.7499015 24.5157467,26.8783312 24.6741728,26.8783312 Z" id="Path" transform="translate(24.674173, 26.591475) rotate(-450.000000) translate(-24.674173, -26.591475) "></path>
            <path d="M17.5842702,21.1400296 C17.2674179,21.1400296 17.0105583,20.88317 17.0105583,20.5663177 C17.0105583,20.2494653 17.2674179,19.9926058 17.5842702,19.9926058 C17.9011226,19.9926058 18.1579822,20.2494653 18.1579822,20.5663177 C18.1579822,20.88317 17.9011226,21.1400296 17.5842702,21.1400296 Z" id="Path" transform="translate(17.584270, 20.566318) rotate(-450.000000) translate(-17.584270, -20.566318) "></path>
            <path d="M17.5842702,20.8531736 C17.7426964,20.8531736 17.8711262,20.7247438 17.8711262,20.5663177 C17.8711262,20.4078915 17.7426964,20.2794617 17.5842702,20.2794617 C17.4258441,20.2794617 17.2974143,20.4078915 17.2974143,20.5663177 C17.2974143,20.7247438 17.4258441,20.8531736 17.5842702,20.8531736 Z" id="Path" transform="translate(17.584270, 20.566318) rotate(-450.000000) translate(-17.584270, -20.566318) "></path>
            <path d="M12.1176022,5.39050406 C12.1176022,5.1528648 12.3414598,4.96022012 12.6176022,4.96022012 C12.8937446,4.96022012 13.1176022,5.1528648 13.1176022,5.39050406 L13.1176022,19.6298413 C13.1176022,19.8674805 12.8937446,20.0601252 12.6176022,20.0601252 C12.3414598,20.0601252 12.1176022,19.8674805 12.1176022,19.6298413 L12.1176022,5.39050406 Z" id="Line-4-Copy" transform="translate(12.617602, 12.510173) rotate(-45.000000) translate(-12.617602, -12.510173) "></path>
            <path d="M24.6741728,29.4887925 C23.0740287,29.4887925 21.7768556,28.1916194 21.7768556,26.5914753 C21.7768556,24.9913312 23.0740287,23.6941581 24.6741728,23.6941581 C26.2743169,23.6941581 27.5714901,24.9913312 27.5714901,26.5914753 C27.5714901,28.1916194 26.2743169,29.4887925 24.6741728,29.4887925 Z M24.6741728,28.6282246 C25.7990384,28.6282246 26.7109222,27.7163409 26.7109222,26.5914753 C26.7109222,25.4666097 25.7990384,24.5547259 24.6741728,24.5547259 C23.5493072,24.5547259 22.6374235,25.4666097 22.6374235,26.5914753 C22.6374235,27.7163409 23.5493072,28.6282246 24.6741728,28.6282246 Z" id="Oval"></path>
        </g>
    </g>
</svg>