<?xml version="1.0" encoding="UTF-8"?>
<svg width="36px" height="36px" viewBox="0 0 36 36" version="1.1" xmlns="http://www.w3.org/2000/svg" xmlns:xlink="http://www.w3.org/1999/xlink">
    <!-- Generator: Sketch 53.2 (72643) - https://sketchapp.com -->
    <title>backup</title>
    <desc>Created with Sketch.</desc>
    <g id="backup" stroke="none" stroke-width="1" fill="none" fill-rule="evenodd">
        <g id="Group-2" fill="#FB8003" fill-rule="nonzero">
            <path d="M9.43422601,34.9280493 C9.43422601,35.2685618 9.06553754,35.481319 8.77071802,35.3109365 L0.220950701,30.3698435 C0.0842168768,30.2908221 -5.68434189e-14,30.1448821 -5.68434189e-14,29.9869564 L-5.68434189e-14,20.1047704 C-5.68434189e-14,19.764258 0.368688465,19.5515008 0.663507987,19.7218833 L9.21327531,24.6629763 C9.35000913,24.7419977 9.43422601,24.8879377 9.43422601,25.0458634 L9.43422601,34.9280493 Z M8.54976732,25.3010584 L0.884458688,20.871113 L0.884458688,29.7317614 L8.54976732,34.1617068 L8.54976732,25.3010584 Z" id="Path-Copy-2"></path>
            <path d="M17.9839933,20.1870712 C17.9839933,20.5275837 17.6153049,20.7403408 17.3204853,20.5699583 L8.77071802,15.6288654 C8.6339842,15.549844 8.54976732,15.4039039 8.54976732,15.2459782 L8.54976732,5.3637923 C8.54976732,5.02327983 8.91845579,4.81052268 9.21327531,4.98090517 L17.7630426,9.92199814 C17.8997765,10.0010195 17.9839933,10.1469596 17.9839933,10.3048853 L17.9839933,20.1870712 Z M17.0995346,10.5600803 L9.43422601,6.13013485 L9.43422601,14.9907832 L17.0995346,19.4207286 L17.0995346,10.5600803 Z" id="Path-Copy-5"></path>
            <path d="M17.0995346,34.1617068 L17.0995346,25.3010584 L9.43422601,20.871113 L9.43422601,29.7317614 L17.0995346,34.1617068 Z M8.54976732,29.9869564 L8.54976732,20.1047704 C8.54976732,19.764258 8.91845579,19.5515008 9.21327531,19.7218833 L17.7630426,24.6629763 C17.8997765,24.7419977 17.9839933,24.8879377 17.9839933,25.0458634 L17.9839933,34.9280493 C17.9839933,35.2685618 17.6153049,35.481319 17.3204853,35.3109365 L8.77071802,30.3698435 L8.99199667,29.9869564 L8.54976732,29.9869564 Z" id="Path-Copy-2" transform="translate(13.266880, 27.516410) scale(-1, 1) translate(-13.266880, -27.516410) "></path>
            <path d="M26.5337607,20.1870712 C26.5337607,20.5275837 26.1650722,20.7403408 25.8702527,20.5699583 L17.3204853,15.6288654 C17.1837515,15.549844 17.0995346,15.4039039 17.0995346,15.2459782 L17.0995346,5.3637923 C17.0995346,5.02327983 17.4682231,4.81052268 17.7630426,4.98090517 L26.31281,9.92199814 C26.4495438,10.0010195 26.5337607,10.1469596 26.5337607,10.3048853 L26.5337607,20.1870712 Z M25.649302,10.5600803 L17.9839933,6.13013485 L17.9839933,14.9907832 L25.649302,19.4207286 L25.649302,10.5600803 Z" id="Path-Copy-6" transform="translate(21.816648, 12.775432) scale(-1, 1) translate(-21.816648, -12.775432) "></path>
            <path d="M16.6553303,20.1047704 L8.99199667,15.6934716 L1.328663,20.1047704 L8.99199667,24.5160693 L16.6553303,20.1047704 Z M8.77137464,25.4095992 L0.221607315,20.4880363 C-0.0738691049,20.3179491 -0.0738691049,19.8915918 0.221607315,19.7215046 L8.77137464,14.7999416 C8.90795026,14.7213236 9.07604307,14.7213236 9.21261869,14.7999416 L17.762386,19.7215046 C18.0578624,19.8915918 18.0578624,20.3179491 17.762386,20.4880363 L9.21261869,25.4095992 C9.07604307,25.4882172 8.90795026,25.4882172 8.77137464,25.4095992 Z" id="Path"></path>
            <path d="M12.8404688,24.9781521 C12.8405262,24.7339156 13.0641643,24.535964 13.3399784,24.5360148 C13.6157926,24.5360656 13.8393377,24.7340996 13.8392803,24.9783361 L13.8380918,30.0383789 C13.8380344,30.2826154 13.6143963,30.480567 13.3385822,30.4805162 C13.062768,30.4804654 12.8392229,30.2824314 12.8392803,30.0381949 L12.8404688,24.9781521 Z" id="Line-2-Copy-3" transform="translate(13.339280, 27.508266) rotate(-60.011917) translate(-13.339280, -27.508266) "></path>
            <path d="M21.3902361,10.237174 C21.3902935,9.99293749 21.6139316,9.79498585 21.8897457,9.79503665 C22.1655599,9.79508745 22.389105,9.99312145 22.3890476,10.237358 L22.3878591,15.2974007 C22.3878017,15.5416372 22.1641637,15.7395889 21.8883495,15.7395381 C21.6125353,15.7394873 21.3889903,15.5414533 21.3890476,15.2972168 L21.3902361,10.237174 Z" id="Line-2-Copy-5" transform="translate(21.889048, 12.767287) rotate(-60.011917) translate(-21.889048, -12.767287) "></path>
            <path d="M25.2050976,5.3637923 L17.541764,0.952493413 L9.87843032,5.3637923 L17.541764,9.77509119 L25.2050976,5.3637923 Z M17.321142,10.6686211 L8.77137464,5.74705815 C8.47589822,5.57697097 8.47589822,5.15061363 8.77137464,4.98052645 L17.321142,0.0589634926 C17.4577176,-0.0196544975 17.6258104,-0.0196544975 17.762386,0.0589634926 L26.3121533,4.98052645 C26.6076298,5.15061363 26.6076298,5.57697097 26.3121533,5.74705815 L17.762386,10.6686211 C17.6258104,10.7472391 17.4577176,10.7472391 17.321142,10.6686211 Z" id="Path-Copy-7"></path>
            <path d="M12.8415175,10.2190684 C12.8415749,9.97483193 13.0652129,9.77688029 13.3410271,9.77693109 C13.6168413,9.77698189 13.8403863,9.97501589 13.840329,10.2192524 L13.8391404,15.2792952 C13.8390831,15.5235317 13.615445,15.7214833 13.3396308,15.7214325 C13.0638167,15.7213817 12.8402716,15.5233477 12.840329,15.2791112 L12.8415175,10.2190684 Z" id="Line-2-Copy-7" transform="translate(13.340329, 12.749182) rotate(-120.011917) translate(-13.340329, -12.749182) "></path>
            <path d="M4.29069811,24.9781521 C4.29075548,24.7339156 4.51439355,24.535964 4.79020772,24.5360148 C5.06602189,24.5360656 5.28956694,24.7340996 5.28950958,24.9783361 L5.28832106,30.0383789 C5.2882637,30.2826154 5.06462563,30.480567 4.78881146,30.4805162 C4.51299729,30.4804654 4.28945223,30.2824314 4.2895096,30.0381949 L4.29069811,24.9781521 Z" id="Line-2-Copy-6" transform="translate(4.789510, 27.508266) rotate(-120.011917) translate(-4.789510, -27.508266) "></path>
            <path d="M26.5337607,34.9280493 C26.5337607,35.2685618 26.1650722,35.481319 25.8702527,35.3109365 L17.3204853,30.3698435 C17.1837515,30.2908221 17.0995346,30.1448821 17.0995346,29.9869564 L17.0995346,20.1047704 C17.0995346,19.764258 17.4682231,19.5515008 17.7630426,19.7218833 L26.31281,24.6629763 C26.4495438,24.7419977 26.5337607,24.8879377 26.5337607,25.0458634 L26.5337607,34.9280493 Z M25.649302,25.3010584 L17.9839933,20.871113 L17.9839933,29.7317614 L25.649302,34.1617068 L25.649302,25.3010584 Z" id="Path-Copy-3"></path>
            <path d="M35.083528,34.9280493 C35.083528,35.2685618 34.7148395,35.481319 34.42002,35.3109365 L25.8702527,30.3698435 C25.7335188,30.2908221 25.649302,30.1448821 25.649302,29.9869564 L25.649302,20.1047704 C25.649302,19.764258 26.0179904,19.5515008 26.31281,19.7218833 L34.8625773,24.6629763 C34.9993111,24.7419977 35.083528,24.8879377 35.083528,25.0458634 L35.083528,34.9280493 Z M34.1990693,25.3010584 L26.5337607,20.871113 L26.5337607,29.7317614 L34.1990693,34.1617068 L34.1990693,25.3010584 Z" id="Path-Copy-4" transform="translate(30.366415, 27.516410) scale(-1, 1) translate(-30.366415, -27.516410) "></path>
            <path d="M26.0915313,24.5160693 L33.754865,20.1047704 L26.0915313,15.6934716 L18.4281976,20.1047704 L26.0915313,24.5160693 Z M17.321142,19.7215046 L25.8709093,14.7999416 C26.0074849,14.7213236 26.1755777,14.7213236 26.3121533,14.7999416 L34.8619207,19.7215046 C35.1573971,19.8915918 35.1573971,20.3179491 34.8619207,20.4880363 L26.3121533,25.4095992 C26.1755777,25.4882172 26.0074849,25.4882172 25.8709093,25.4095992 L17.321142,20.4880363 C17.0256655,20.3179491 17.0256655,19.8915918 17.321142,19.7215046 Z" id="Path-Copy"></path>
            <path d="M29.9400035,24.9781521 C29.9400608,24.7339156 30.1636989,24.535964 30.4395131,24.5360148 C30.7153272,24.5360656 30.9388723,24.7340996 30.9388149,24.9783361 L30.9376264,30.0383789 C30.937569,30.2826154 30.713931,30.480567 30.4381168,30.4805162 C30.1623026,30.4804654 29.9387576,30.2824314 29.938815,30.0381949 L29.9400035,24.9781521 Z" id="Line-2-Copy-4" transform="translate(30.438815, 27.508266) rotate(-60.011917) translate(-30.438815, -27.508266) "></path>
            <path d="M21.3902328,24.9781521 C21.3902901,24.7339156 21.6139282,24.535964 21.8897424,24.5360148 C22.1655565,24.5360656 22.3891016,24.7340996 22.3890442,24.9783361 L22.3878557,30.0383789 C22.3877983,30.2826154 22.1641603,30.480567 21.8883461,30.4805162 C21.6125319,30.4804654 21.3889869,30.2824314 21.3890442,30.0381949 L21.3902328,24.9781521 Z" id="Line-2-Copy-4" transform="translate(21.889044, 27.508266) rotate(-120.011917) translate(-21.889044, -27.508266) "></path>
        </g>
    </g>
</svg>