<?xml version="1.0" encoding="UTF-8"?>
<svg width="22px" height="22px" viewBox="0 0 22 22" version="1.1" xmlns="http://www.w3.org/2000/svg" xmlns:xlink="http://www.w3.org/1999/xlink">
    <!-- Generator: Sketch 53.2 (72643) - https://sketchapp.com -->
    <title>key</title>
    <desc>Created with Sketch.</desc>
    <g id="key" stroke="none" stroke-width="1" fill="none" fill-rule="evenodd" stroke-linecap="round" stroke-linejoin="round">
        <g transform="translate(1.000000, 1.000000)" id="Shape" stroke="#FB8003" stroke-width="2">
            <path d="M19,0 L17,2 L19,0 Z M9.39,9.61 C10.7949651,10.9962629 11.3493981,13.0290705 10.8428157,14.9366936 C10.3362333,16.8443167 8.84631672,18.3342333 6.93869362,18.8408157 C5.03107052,19.3473981 2.99826289,18.7929651 1.612,17.388 C-0.472347152,15.2299161 -0.442538056,11.7995337 1.67899783,9.67799783 C3.80053373,7.55646194 7.23091612,7.52665285 9.389,9.611 L9.39,9.61 Z M9.39,9.61 L13.5,5.5 L9.39,9.61 Z M13.5,5.5 L16.5,8.5 L20,5 L17,2 L13.5,5.5 Z M13.5,5.5 L17,2 L13.5,5.5 Z"></path>
        </g>
    </g>
</svg>