<?xml version="1.0" encoding="UTF-8"?>
<svg width="200px" height="200px" viewBox="0 0 200 200" version="1.1" xmlns="http://www.w3.org/2000/svg" xmlns:xlink="http://www.w3.org/1999/xlink">
    <title>Artboard Copy 3</title>
    <defs>
        <linearGradient x1="100%" y1="100%" x2="0%" y2="0%" id="linearGradient-1">
            <stop stop-color="#F700D0" offset="0%"></stop>
            <stop stop-color="#0004FF" offset="100%"></stop>
        </linearGradient>
    </defs>
    <g id="Artboard-Copy-3" stroke="none" stroke-width="1" fill="none" fill-rule="evenodd">
        <g id="Group-2">
            <path d="M47.7899344,0 L152.210066,0 C178.603718,0 200,21.3962824 200,47.7899344 L200,152.210066 C200,178.603718 178.603718,200 152.210066,200 L47.7899344,200 C21.3962824,200 0,178.603718 0,152.210066 L0,47.7899344 C0,21.3962824 21.3962824,0 47.7899344,0 Z" id="Rectangle-Copy-25" fill="url(#linearGradient-1)"></path>
            <path d="M150.121663,4 C175.459569,4 196,24.5404311 196,49.878337 L196,150.121663 C196,175.459569 175.459569,196 150.121663,196 L49.878337,196 C24.5404311,196 4,175.459569 4,150.121663 L4,49.878337 C4,24.5404311 24.5404311,4 49.878337,4 L150.121663,4 Z M91.8279733,86.0981429 C91.7655924,86.1325624 91.686967,86.1762086 91.5890157,86.2308606 C90.3646241,86.9140106 88.8320367,86.9905251 87.4923178,86.3001379 L87.4923178,86.3001379 L62.5745289,73.4594431 L46.596212,65.2254585 C44.6170441,64.205549 42.1869983,64.8529432 40.9775753,66.7223327 L40.9775753,66.7223327 L40.892,66.853 L40.822895,66.9902468 C39.8424753,68.906263 40.4212606,71.2391281 42.1526755,72.4801419 L42.3358824,72.604566 L57.4558806,82.325202 L81.035143,97.4842928 C82.3028953,98.2993299 83.0029255,99.6648467 83.023496,101.066776 C83.0251416,101.17893 83.0266556,101.268845 83.0280379,101.340078 L83.03,101.431 L83.03179,101.363089 C83.0351471,101.250803 83.0373193,101.274624 83.0383067,101.338476 L83.0383067,101.525906 C83.0371548,101.6004 83.0343901,101.620407 83.0300127,101.433362 L83.0280379,101.524303 C83.0266556,101.595537 83.0251416,101.685451 83.023496,101.797605 C83.0029255,103.199535 82.3028953,104.565052 81.035143,105.380089 L81.035143,105.380089 L57.4558806,120.539179 L42.3358824,130.259815 C40.4630308,131.46387 39.8086677,133.892049 40.822895,135.874135 L40.822895,135.874135 L40.892,136.01 L40.9775753,136.142049 C42.1466842,137.949125 44.4563973,138.614315 46.3968542,137.735373 L46.596212,137.638923 L62.5745289,129.404938 L87.4923178,116.564244 C88.8320367,115.873856 90.3646241,115.950371 91.5890157,116.633521 C91.7359427,116.715499 91.8393862,116.772714 91.9097467,116.81117 L91.919,116.816 L91.987517,116.858351 C92.0180163,116.876758 92.0525438,116.897529 92.0914847,116.920885 L92.2219327,116.998936 C93.4257538,117.717715 94.2583109,119.006717 94.3302776,120.512141 L94.3302776,120.512141 L95.6688041,148.511927 L96.5271228,166.466548 C96.6334391,168.690512 98.4091218,170.471296 100.632772,170.583993 C100.910728,170.59808 101.105693,170.610406 101.238413,170.620971 L101.312,170.627 L101.386587,170.620971 C101.486127,170.613047 101.62068,170.604133 101.798997,170.594228 L101.992228,170.583993 C104.215878,170.471296 105.991561,168.690512 106.097877,166.466548 L106.097877,166.466548 L106.956196,148.511927 L108.294722,120.512141 C108.366689,119.006717 109.199246,117.717715 110.403067,116.998936 C110.499373,116.941433 110.576484,116.895165 110.637483,116.858351 L110.705,116.816 L110.715253,116.81117 C110.76216,116.785533 110.823771,116.751558 110.903167,116.707467 L111.035984,116.633521 C112.260376,115.950371 113.792963,115.873856 115.132682,116.564244 L115.132682,116.564244 L140.050471,129.404938 L156.028788,137.638923 C158.007956,138.658832 160.438002,138.011438 161.647425,136.142049 L161.647425,136.142049 L161.732,136.01 L161.802105,135.874135 C162.782525,133.958118 162.203739,131.625253 160.472324,130.38424 L160.289118,130.259815 L145.169119,120.539179 L121.589857,105.380089 C120.322105,104.565052 119.622075,103.199535 119.601504,101.797605 C119.599858,101.685451 119.598344,101.595537 119.596962,101.524303 L119.594,101.433 L119.59321,101.501292 C119.589853,101.613579 119.587681,101.589758 119.586693,101.525906 L119.586693,101.338476 C119.587845,101.263981 119.59061,101.243975 119.594987,101.43102 L119.596962,101.340078 C119.598344,101.268845 119.599858,101.17893 119.601504,101.066776 C119.622075,99.6648467 120.322105,98.2993299 121.589857,97.4842928 L121.589857,97.4842928 L145.169119,82.325202 L160.289118,72.604566 C162.161969,71.4005111 162.816332,68.9723326 161.802105,66.9902468 L161.802105,66.9902468 L161.732,66.853 L161.647425,66.7223327 C160.478316,64.9152561 158.168603,64.2500664 156.228146,65.1290088 L156.028788,65.2254585 L140.050471,73.4594431 L115.132682,86.3001379 C113.792963,86.9905251 112.260376,86.9140106 111.035984,86.2308606 C110.938033,86.1762086 110.859408,86.1325624 110.797027,86.0981429 L110.717,86.054 L110.775222,86.0898867 C110.950424,86.1981461 110.731435,86.074221 110.630961,86.0141221 L110.590992,85.98945 C110.572616,85.9771301 110.597986,85.9891173 110.715253,86.0532113 L110.637483,86.0060303 C110.576484,85.9692166 110.499373,85.9229481 110.403067,85.8654458 C109.199246,85.1466666 108.366689,83.8576642 108.294722,82.3522401 L108.294722,82.3522401 L106.956196,54.3524544 L106.097877,36.3978338 C105.991561,34.1738693 104.215878,32.393085 101.992228,32.2803887 L101.992228,32.2803887 L100.632772,32.2803887 C98.4091218,32.393085 96.6334391,34.1738693 96.5271228,36.3978338 L96.5271228,36.3978338 L95.6688041,54.3524544 L94.3302776,82.3522401 C94.2583109,83.8576642 93.4257538,85.1466666 92.2219327,85.8654458 C92.125627,85.9229481 92.0485156,85.9692166 91.987517,86.0060303 L91.909,86.053 L91.9694647,86.0207853 C92.0354124,85.9852947 92.0487091,85.9795941 92.0340079,85.98945 L91.9940392,86.0141221 C91.8844314,86.0796845 91.6337806,86.2212054 91.9077184,86.0543823 Z" id="Combined-Shape" fill="#FFFFFF"></path>
        </g>
    </g>
</svg>