<?xml version="1.0" encoding="UTF-8"?>
<svg width="1024px" height="1024px" viewBox="0 0 1024 1024" version="1.1" xmlns="http://www.w3.org/2000/svg" xmlns:xlink="http://www.w3.org/1999/xlink">
    <!-- Generator: Sketch 53.2 (72643) - https://sketchapp.com -->
    <title>Icon</title>
    <desc>Created with Sketch.</desc>
    <defs>
        <linearGradient x1="50%" y1="0.168918919%" x2="50%" y2="100%" id="linearGradient-1">
            <stop stop-color="#FF7800" offset="0%"></stop>
            <stop stop-color="#FF1B67" offset="100%"></stop>
        </linearGradient>
        <linearGradient x1="50%" y1="0%" x2="50%" y2="100%" id="linearGradient-2">
            <stop stop-color="#FF8B00" offset="0%"></stop>
            <stop stop-color="#FEF1E2" offset="100%"></stop>
        </linearGradient>
    </defs>
    <g id="Icon" stroke="none" stroke-width="1" fill="none" fill-rule="evenodd">
        <circle id="Oval-1" fill="#FFFFFF" cx="512" cy="512" r="450"></circle>
        <g id="Group-2-Copy-2" transform="translate(204.000000, 195.000000)">
            <path d="M247.728468,647.354948 C223.260761,575.616354 145.310545,473.567864 13.9762408,439.435273 C23.9168619,387.877404 46.7113948,340.413892 82.3598397,306.397729 C-14.054342,232.563444 -28.8373249,91.4342051 54.0536753,1.13686838e-13 C151.668605,29.3784776 207.493558,107.539976 219.382935,187.215028 C246.34724,178.012439 274.842079,174.322676 307.512264,174.92904 C340.182458,174.322675 368.677299,178.012438 395.641607,187.215028 C407.530984,107.539976 463.355936,29.3784776 560.970866,1.13686838e-13 C643.861867,91.4342051 629.078884,232.563444 532.664702,306.397729 C568.313147,340.413892 591.10768,387.877404 601.048301,439.435273 C469.713997,473.567864 391.763781,575.616354 367.296074,647.354948 C351.056446,656.960197 329.361953,661.617287 307.512271,661.597883 C285.662582,661.617287 263.968096,656.960197 247.728468,647.354948 Z" id="Path" fill="url(#linearGradient-1)"></path>
            <path d="M135.157388,180.55927 C135.157388,231.573812 113.533009,277.523769 78.9340028,309.715906 C80.0545388,308.609847 81.1160992,307.484383 82.2562937,306.397729 C-6.56092842,238.287784 -26.0228695,112.934438 36.4715858,22.1211787 C94.9163847,50.8010927 135.157388,110.97458 135.157388,180.55927 Z M479.867154,180.55927 C479.867154,110.97458 520.108157,50.8010927 578.552956,22.1211787 C641.047411,112.934438 621.58547,238.287784 532.768248,306.397729 C533.908443,307.484383 534.970003,308.609847 536.090539,309.715906 C501.491533,277.523769 479.867154,231.573812 479.867154,180.55927 Z M533.917067,307.678429 C568.788084,341.616974 591.162998,388.498349 601.00245,439.435273 C469.704805,473.567864 391.776346,575.616354 367.315469,647.354948 C358.67643,652.458343 348.561474,656.164611 337.698719,658.51256 C341.299959,512.12469 418.362545,383.705427 533.917067,307.678429 Z M81.1074746,307.678429 C196.661997,383.705427 273.724583,512.12469 277.325822,658.51256 C266.463068,656.164611 256.348111,652.458343 247.709073,647.354948 C223.248195,575.616354 145.319737,473.567864 14.0220921,439.435273 C23.861544,388.498349 46.2364574,341.616974 81.1074746,307.678429 Z" id="Shape" fill="url(#linearGradient-2)"></path>
        </g>
    </g>
</svg>