<?xml version="1.0" encoding="UTF-8"?>
<svg width="36px" height="36px" viewBox="0 0 36 36" version="1.1" xmlns="http://www.w3.org/2000/svg" xmlns:xlink="http://www.w3.org/1999/xlink">
    <!-- Generator: Sketch 53.2 (72643) - https://sketchapp.com -->
    <title>sync copy</title>
    <desc>Created with Sketch.</desc>
    <g id="sync-copy" stroke="none" stroke-width="1" fill="none" fill-rule="evenodd">
        <g id="Group-3" transform="translate(2.458537, 0.000000)" fill="#FB8003" fill-rule="nonzero">
            <path d="M6.38150271,9.09291712 C6.19181785,9.19914065 5.9519367,9.13148186 5.84571317,8.941797 C5.73948965,8.75211213 5.80714843,8.51223098 5.9968333,8.40600746 L12.4079902,4.8157596 C12.5976751,4.70953607 12.8375562,4.77719486 12.9437797,4.96687973 C13.0500033,5.15656459 12.9823445,5.39644574 12.7926596,5.50266927 L6.38150271,9.09291712 Z" id="Line" transform="translate(9.394746, 6.954338) rotate(-0.751174) translate(-9.394746, -6.954338) "></path>
            <path d="M15.5053571,6.56069657 C13.6936708,6.56069657 12.2250088,5.09203462 12.2250088,3.28034828 C12.2250088,1.46866195 13.6936708,0 15.5053571,0 C17.3170435,0 18.7857054,1.46866195 18.7857054,3.28034828 C18.7857054,5.09203462 17.3170435,6.56069657 15.5053571,6.56069657 Z M15.5053571,5.77341298 C16.8822387,5.77341298 17.9984218,4.6572299 17.9984218,3.28034828 C17.9984218,1.90346667 16.8822387,0.787283588 15.5053571,0.787283588 C14.1284755,0.787283588 13.0122924,1.90346667 13.0122924,3.28034828 C13.0122924,4.6572299 14.1284755,5.77341298 15.5053571,5.77341298 Z" id="Oval"></path>
            <path d="M3.28034828,13.9027127 C1.46866195,13.9027127 0,12.4340508 0,10.6223645 C0,8.81067812 1.46866195,7.34201617 3.28034828,7.34201617 C5.09203462,7.34201617 6.56069657,8.81067812 6.56069657,10.6223645 C6.56069657,12.4340508 5.09203462,13.9027127 3.28034828,13.9027127 Z M3.28034828,13.1154292 C4.6572299,13.1154292 5.77341298,11.9992461 5.77341298,10.6223645 C5.77341298,9.24548284 4.6572299,8.12929976 3.28034828,8.12929976 C1.90346667,8.12929976 0.787283588,9.24548284 0.787283588,10.6223645 C0.787283588,11.9992461 1.90346667,13.1154292 3.28034828,13.1154292 Z" id="Oval" transform="translate(3.280348, 10.622364) scale(-1, -1) translate(-3.280348, -10.622364) "></path>
            <path d="M6.38150271,16.3925161 C6.19181785,16.4987396 5.9519367,16.4310808 5.84571317,16.241396 C5.73948965,16.0517111 5.80714843,15.8118299 5.9968333,15.7056064 L12.4079902,12.1153586 C12.5976751,12.009135 12.8375562,12.0767938 12.9437797,12.2664787 C13.0500033,12.4561636 12.9823445,12.6960447 12.7926596,12.8022682 L6.38150271,16.3925161 Z" id="Line" transform="translate(9.394746, 14.253937) scale(1, -1) rotate(-0.751174) translate(-9.394746, -14.253937) "></path>
            <path d="M15.5053571,21.2082757 C13.6936708,21.2082757 12.2250088,19.7396137 12.2250088,17.9279274 C12.2250088,16.1162411 13.6936708,14.6475791 15.5053571,14.6475791 C17.3170435,14.6475791 18.7857054,16.1162411 18.7857054,17.9279274 C18.7857054,19.7396137 17.3170435,21.2082757 15.5053571,21.2082757 Z M15.5053571,20.4209921 C16.8822387,20.4209921 17.9984218,19.304809 17.9984218,17.9279274 C17.9984218,16.5510458 16.8822387,15.4348627 15.5053571,15.4348627 C14.1284755,15.4348627 13.0122924,16.5510458 13.0122924,17.9279274 C13.0122924,19.304809 14.1284755,20.4209921 15.5053571,20.4209921 Z" id="Oval" transform="translate(15.505357, 17.927927) scale(1, -1) translate(-15.505357, -17.927927) "></path>
            <path d="M18.6076571,9.09291712 C18.4179722,9.19914065 18.178091,9.13148186 18.0718675,8.941797 C17.965644,8.75211213 18.0333028,8.51223098 18.2229876,8.40600746 L24.6341445,4.8157596 C24.8238294,4.70953607 25.0637105,4.77719486 25.1699341,4.96687973 C25.2761576,5.15656459 25.2084988,5.39644574 25.0188139,5.50266927 L18.6076571,9.09291712 Z" id="Line" transform="translate(21.620901, 6.954338) scale(-1, 1) rotate(-0.751174) translate(-21.620901, -6.954338) "></path>
            <path d="M27.735299,13.9027127 C25.9236126,13.9027127 24.4549507,12.4340508 24.4549507,10.6223645 C24.4549507,8.81067812 25.9236126,7.34201617 27.735299,7.34201617 C29.5469853,7.34201617 31.0156472,8.81067812 31.0156472,10.6223645 C31.0156472,12.4340508 29.5469853,13.9027127 27.735299,13.9027127 Z M27.735299,13.1154292 C29.1121806,13.1154292 30.2283637,11.9992461 30.2283637,10.6223645 C30.2283637,9.24548284 29.1121806,8.12929976 27.735299,8.12929976 C26.3584173,8.12929976 25.2422343,9.24548284 25.2422343,10.6223645 C25.2422343,11.9992461 26.3584173,13.1154292 27.735299,13.1154292 Z" id="Oval" transform="translate(27.735299, 10.622364) scale(1, -1) translate(-27.735299, -10.622364) "></path>
            <path d="M18.6076571,16.3925161 C18.4179722,16.4987396 18.178091,16.4310808 18.0718675,16.241396 C17.965644,16.0517111 18.0333028,15.8118299 18.2229876,15.7056064 L24.6341445,12.1153586 C24.8238294,12.009135 25.0637105,12.0767938 25.1699341,12.2664787 C25.2761576,12.4561636 25.2084988,12.6960447 25.0188139,12.8022682 L18.6076571,16.3925161 Z" id="Line" transform="translate(21.620901, 14.253937) scale(-1, -1) rotate(-0.751174) translate(-21.620901, -14.253937) "></path>
            <path d="M6.3839692,23.7404962 C6.19428434,23.8467198 5.95440319,23.779061 5.84817966,23.5893761 C5.74195614,23.3996913 5.80961492,23.1598101 5.99929979,23.0535866 L12.4104567,19.4633387 C12.6001415,19.3571152 12.8400227,19.424774 12.9462462,19.6144588 C13.0524697,19.8041437 12.984811,20.0440249 12.7951261,20.1502484 L6.3839692,23.7404962 Z" id="Line" transform="translate(9.397213, 21.601917) rotate(-0.751174) translate(-9.397213, -21.601917) "></path>
            <path d="M3.28281477,28.5502919 C1.47112844,28.5502919 0.00246648987,27.0816299 0.00246648987,25.2699436 C0.00246648987,23.4582572 1.47112844,21.9895953 3.28281477,21.9895953 C5.09450111,21.9895953 6.56316306,23.4582572 6.56316306,25.2699436 C6.56316306,27.0816299 5.09450111,28.5502919 3.28281477,28.5502919 Z M3.28281477,27.7630083 C4.65969639,27.7630083 5.77587947,26.6468252 5.77587947,25.2699436 C5.77587947,23.893062 4.65969639,22.7768789 3.28281477,22.7768789 C1.90593316,22.7768789 0.789750078,23.893062 0.789750078,25.2699436 C0.789750078,26.6468252 1.90593316,27.7630083 3.28281477,27.7630083 Z" id="Oval" transform="translate(3.282815, 25.269944) scale(-1, -1) translate(-3.282815, -25.269944) "></path>
            <path d="M6.3839692,31.0400952 C6.19428434,31.1463187 5.95440319,31.07866 5.84817966,30.8889751 C5.74195614,30.6992902 5.80961492,30.4594091 5.99929979,30.3531855 L12.4104567,26.7629377 C12.6001415,26.6567142 12.8400227,26.7243729 12.9462462,26.9140578 C13.0524697,27.1037427 12.984811,27.3436238 12.7951261,27.4498474 L6.3839692,31.0400952 Z" id="Line" transform="translate(9.397213, 28.901516) scale(1, -1) rotate(-0.751174) translate(-9.397213, -28.901516) "></path>
            <path d="M15.5078236,35.8558548 C13.6961373,35.8558548 12.2274753,34.3871929 12.2274753,32.5755065 C12.2274753,30.7638202 13.6961373,29.2951582 15.5078236,29.2951582 C17.31951,29.2951582 18.7881719,30.7638202 18.7881719,32.5755065 C18.7881719,34.3871929 17.31951,35.8558548 15.5078236,35.8558548 Z M15.5078236,35.0685712 C16.8847052,35.0685712 18.0008883,33.9523881 18.0008883,32.5755065 C18.0008883,31.1986249 16.8847052,30.0824418 15.5078236,30.0824418 C14.130942,30.0824418 13.0147589,31.1986249 13.0147589,32.5755065 C13.0147589,33.9523881 14.130942,35.0685712 15.5078236,35.0685712 Z" id="Oval" transform="translate(15.507824, 32.575507) scale(1, -1) translate(-15.507824, -32.575507) "></path>
            <path d="M18.6101235,23.7404962 C18.4204387,23.8467198 18.1805575,23.779061 18.074334,23.5893761 C17.9681105,23.3996913 18.0357693,23.1598101 18.2254541,23.0535866 L24.636611,19.4633387 C24.8262959,19.3571152 25.066177,19.424774 25.1724006,19.6144588 C25.2786241,19.8041437 25.2109653,20.0440249 25.0212804,20.1502484 L18.6101235,23.7404962 Z" id="Line" transform="translate(21.623367, 21.601917) scale(-1, 1) rotate(-0.751174) translate(-21.623367, -21.601917) "></path>
            <path d="M27.7377655,28.5502919 C25.9260791,28.5502919 24.4574172,27.0816299 24.4574172,25.2699436 C24.4574172,23.4582572 25.9260791,21.9895953 27.7377655,21.9895953 C29.5494518,21.9895953 31.0181137,23.4582572 31.0181137,25.2699436 C31.0181137,27.0816299 29.5494518,28.5502919 27.7377655,28.5502919 Z M27.7377655,27.7630083 C29.1146471,27.7630083 30.2308301,26.6468252 30.2308301,25.2699436 C30.2308301,23.893062 29.1146471,22.7768789 27.7377655,22.7768789 C26.3608838,22.7768789 25.2447008,23.893062 25.2447008,25.2699436 C25.2447008,26.6468252 26.3608838,27.7630083 27.7377655,27.7630083 Z" id="Oval" transform="translate(27.737765, 25.269944) scale(1, -1) translate(-27.737765, -25.269944) "></path>
            <path d="M18.6101235,31.0400952 C18.4204387,31.1463187 18.1805575,31.07866 18.074334,30.8889751 C17.9681105,30.6992902 18.0357693,30.4594091 18.2254541,30.3531855 L24.636611,26.7629377 C24.8262959,26.6567142 25.066177,26.7243729 25.1724006,26.9140578 C25.2786241,27.1037427 25.2109653,27.3436238 25.0212804,27.4498474 L18.6101235,31.0400952 Z" id="Line" transform="translate(21.623367, 28.901516) scale(-1, -1) rotate(-0.751174) translate(-21.623367, -28.901516) "></path>
            <path d="M2.89036151,15.6757965 C2.89041887,15.4583942 3.11405694,15.2821914 3.38987111,15.2822366 C3.66568528,15.2822818 3.88923034,15.4585579 3.88917297,15.6759603 L3.88798445,20.1800583 C3.88792709,20.3974606 3.66428902,20.5736634 3.38847485,20.5736182 C3.11266068,20.573573 2.88911562,20.3972969 2.88917299,20.1798945 L2.89036151,15.6757965 Z" id="Line-2"></path>
            <path d="M27.3455209,15.6757965 C27.3455782,15.4583942 27.5692163,15.2821914 27.8450305,15.2822366 C28.1208446,15.2822818 28.3443897,15.4585579 28.3443323,15.6759603 L28.3431438,20.1800583 C28.3430864,20.3974606 28.1194484,20.5736634 27.8436342,20.5736182 C27.56782,20.573573 27.344275,20.3972969 27.3443323,20.1798945 L27.3455209,15.6757965 Z" id="Line-2-Copy"></path>
            <path d="M15.1119671,8.37023357 C15.1120244,8.15283122 15.3356625,7.97662844 15.6114767,7.97667366 C15.8872908,7.97671888 16.1108359,8.15299497 16.1107785,8.37039732 L16.10959,12.8744953 C16.1095326,13.0918977 15.8858946,13.2681005 15.6100804,13.2680552 C15.3342662,13.26801 15.1107212,13.0917339 15.1107785,12.8743316 L15.1119671,8.37023357 Z" id="Line-2-Copy-2"></path>
            <path d="M15.1153704,23.0178127 C15.1154277,22.8004103 15.3390658,22.6242076 15.61488,22.6242528 C15.8906941,22.624298 16.1142392,22.8005741 16.1141818,23.0179764 L16.1129933,27.5220745 C16.1129359,27.7394768 15.8892979,27.9156796 15.6134837,27.9156344 C15.3376695,27.9155892 15.1141245,27.7393131 15.1141818,27.5219107 L15.1153704,23.0178127 Z" id="Line-2-Copy-3"></path>
        </g>
    </g>
</svg>