<?xml version="1.0" encoding="UTF-8"?>
<svg width="120px" height="120px" viewBox="0 0 120 120" version="1.1" xmlns="http://www.w3.org/2000/svg" xmlns:xlink="http://www.w3.org/1999/xlink">
    <title>Artboard</title>
    <g id="Artboard" stroke="none" stroke-width="1" fill="none" fill-rule="evenodd">
        <path d="M60,120 C50.7368828,120 41.9640432,117.900872 34.1312179,114.152354 L81.2132034,67.0710678 C85.0474419,63.2368293 85.1171554,57.0636148 81.4223437,53.1443226 L81.230018,52.9469322 L60,31.7157288 L112.927662,31.7143871 C117.440741,40.1415505 120,49.7719017 120,60 C120,76.5685425 113.284271,91.5685425 102.426407,102.426407 C91.5685425,113.284271 76.5685425,120 60,120 Z" id="Path" fill="#000000"></path>
        <path d="M60,88.2842712 L7.0723377,88.2856129 C2.55925949,79.8584495 -4.97379915e-14,70.2280983 -4.97379915e-14,60 C-4.97379915e-14,43.4314575 6.71572875,28.4314575 17.5735931,17.5735931 C28.4314575,6.71572875 43.4314575,0 60,0 C69.2631172,0 78.0359568,2.09912766 85.8687821,5.84764615 L38.7867966,52.9289322 C34.9525581,56.7631707 34.8828446,62.9363852 38.5776563,66.8556774 L38.769982,67.0530678 L60,88.2842712 Z" id="Path" fill="#000000"></path>
    </g>
</svg>