<?xml version="1.0" encoding="UTF-8"?>
<svg width="122px" height="122px" viewBox="0 0 122 122" version="1.1" xmlns="http://www.w3.org/2000/svg" xmlns:xlink="http://www.w3.org/1999/xlink">
    <title>Group 2</title>
    <g id="Page-1" stroke="none" stroke-width="1" fill="none" fill-rule="evenodd">
        <g id="Artboard" transform="translate(-339, -139)" fill="#FFFFFF" stroke="#000000" stroke-width="2">
            <g id="Group-Copy-3" transform="translate(310, 110)">
                <g id="Group-2" transform="translate(30, 30)">
                    <path d="M112.927662,31.7143871 C117.440741,40.1415505 120,49.7719017 120,60 C120,76.5685425 113.284271,91.5685425 102.426407,102.426407 L102.692925,102.154873 C110.156372,94.4076451 110.148044,82.1248888 102.667942,74.387782 L102.426407,74.1421356 L60,31.7157288 L112.927662,31.7143871 Z" id="Path-Copy"></path>
                    <path d="M81.230018,52.9469322 L102.426407,74.1421356 L102.667942,74.387782 C110.148044,82.1248888 110.156372,94.4076451 102.692925,102.154873 L102.426407,102.426407 C91.5685425,113.284271 76.5685425,120 60,120 C50.7368828,120 41.9640432,117.900872 34.1312179,114.152354 L81.2132034,67.0710678 C85.0474419,63.2368293 85.1171554,57.0636148 81.4223437,53.1443226 L81.230018,52.9469322 Z" id="Path-Copy-2"></path>
                    <path d="M52.9276623,17.5735931 C57.4407405,26.0007565 60,35.6311077 60,45.859206 C60,62.4277485 53.2842712,77.4277485 42.4264069,88.2856129 L42.6929251,88.0140794 C50.1563717,80.2668511 50.148044,67.9840949 42.6679421,60.2469881 L42.4264069,60.0013417 L0,17.5749348 L52.9276623,17.5735931 Z" id="Path-Copy-3" transform="translate(30, 52.9296) rotate(-180) translate(-30, -52.9296)"></path>
                    <path d="M58.8145289,0 L80.0109177,21.1952034 L80.252453,21.4408498 C87.7325549,29.1779567 87.7408826,41.4607129 80.277436,49.2079411 L80.0109177,49.4794747 C69.1530534,60.3373391 54.1530534,67.0530678 37.5845109,67.0530678 C28.3213937,67.0530678 19.548554,64.9539402 11.7157288,61.2054217 L58.7977143,14.1241356 C62.6319528,10.2898971 62.7016662,4.11668261 59.0068546,0.197390436 L58.8145289,0 Z" id="Path-Copy-4" transform="translate(48.7923, 33.5265) rotate(-180) translate(-48.7923, -33.5265)"></path>
                </g>
            </g>
        </g>
    </g>
</svg>