<?xml version="1.0" encoding="UTF-8"?>
<svg width="96.5685425px" height="120px" viewBox="0 0 96.5685425 120" version="1.1" xmlns="http://www.w3.org/2000/svg" xmlns:xlink="http://www.w3.org/1999/xlink">
    <title>Group 6</title>
    <g id="Page-1" stroke="none" stroke-width="1" fill="none" fill-rule="evenodd">
        <g id="Artboard" transform="translate(-151.7157, -140)">
            <g id="Group-3" transform="translate(140, 140)">
                <g id="Group-6" transform="translate(0, 0)">
                    <rect id="Rectangle" x="0" y="0" width="120" height="120"></rect>
                    <g id="Group-4" transform="translate(11.7157, 0)" fill="#58F6C1">
                        <path d="M47.0988001,0 L68.295189,21.1952034 L68.5367242,21.4408498 C76.0168261,29.1779567 76.0251538,41.4607129 68.5617072,49.2079411 L68.295189,49.4794747 C57.4373246,60.3373391 42.4373246,67.0530678 25.8687821,67.0530678 C16.6056649,67.0530678 7.83282529,64.9539402 0,61.2054217 L47.0819856,14.1241356 C50.9162241,10.2898971 50.9859375,4.11668261 47.2911258,0.197390436 L47.0988001,0 Z" id="Path-Copy-4" transform="translate(37.0765, 33.5265) rotate(-180) translate(-37.0765, -33.5265)"></path>
                        <path d="M69.5142892,52.9469322 L90.7106781,74.1421356 L90.9522133,74.387782 C98.4323153,82.1248888 98.4406429,94.4076451 90.9771963,102.154873 L90.7106781,102.426407 C79.8528137,113.284271 64.8528137,120 48.2842712,120 C39.0211541,120 30.2483144,117.900872 22.4154891,114.152354 L69.4974747,67.0710678 C73.3317132,63.2368293 73.4014266,57.0636148 69.706615,53.1443226 L69.5142892,52.9469322 Z" id="Path-Copy-2"></path>
                    </g>
                </g>
            </g>
        </g>
    </g>
</svg>